<svg width="187" height="45" viewBox="0 0 187 45" fill="none" xmlns="http://www.w3.org/2000/svg" style="shape-rendering: geometricPrecision; text-rendering: geometricPrecision; -webkit-font-smoothing: antialiased; font-smoothing: antialiased;">
<path d="M63.1246 27.488C62.0823 29.8925 60.1702 31.8145 57.7711 32.869C55.372 33.9235 52.6631 34.0328 50.1869 33.1749L49.9167 33.0754C48.6926 32.6473 47.6283 31.8557 46.8661 30.8064C46.1039 29.7572 45.6802 28.5003 45.6516 27.2037C45.6553 26.225 45.8951 25.2617 46.3505 24.3955C46.8059 23.5292 47.4635 22.7856 48.2675 22.2277C48.5276 22.0488 48.716 21.7836 48.7992 21.4792C48.8825 21.1747 48.8553 20.8506 48.7225 20.5642C48.6085 20.3314 48.433 20.1341 48.215 19.9938C47.997 19.8534 47.7448 19.7754 47.4856 19.7681C47.2329 19.7682 46.9858 19.8424 46.7747 19.9813C45.6604 20.7554 44.7378 21.7739 44.0774 22.9592C43.417 24.1444 43.0363 25.4649 42.9645 26.8198C42.9145 28.5436 43.3592 30.2456 44.2461 31.7246C45.133 33.2035 46.4249 34.3975 47.969 35.1654C47.1338 36.8169 45.8721 38.2151 44.3147 39.215C42.7574 40.2149 40.961 40.7802 39.1116 40.8523C38.0714 40.887 37.0394 40.6574 36.112 40.185C35.1846 39.7126 34.3921 39.0128 33.8086 38.151C33.6792 37.9692 33.5088 37.8204 33.3112 37.7166C33.1136 37.6129 32.8944 37.5571 32.6712 37.5538C32.4505 37.5647 32.2353 37.627 32.0428 37.7356C31.8503 37.8441 31.6858 37.9961 31.5623 38.1794C30.4337 40.0688 28.63 41.4594 26.5156 42.0702C24.4012 42.681 22.1338 42.4665 20.1715 41.47C18.2092 40.4735 16.6983 38.7693 15.944 36.7018C15.1898 34.6342 15.2484 32.3575 16.1081 30.3315C16.5093 29.1307 17.3333 28.1167 18.4266 27.4785C19.52 26.8403 20.8081 26.6213 22.0509 26.8625C23.3277 27.1565 24.4425 27.9302 25.1645 29.0235C25.3394 29.2403 25.5742 29.4009 25.8396 29.4854C26.105 29.5699 26.3894 29.5746 26.6574 29.4989C26.9255 29.4231 27.1654 29.2704 27.3474 29.0595C27.5293 28.8486 27.6453 28.5889 27.681 28.3126C27.6813 28.0862 27.6172 27.8643 27.4962 27.6729C26.7755 26.5299 25.7679 25.5958 24.5739 24.9634C23.3798 24.3309 22.041 24.0224 20.6906 24.0684C19.3402 24.1144 18.0254 24.5134 16.8772 25.2256C15.729 25.9379 14.7874 26.9385 14.1462 28.1278C13.0631 30.1569 12.6265 32.4687 12.895 34.7531C10.4934 35.0698 8.0523 34.646 5.89794 33.5383C3.74359 32.4307 1.97859 30.6919 0.838818 28.5543C0.316749 27.5872 0.0294095 26.5109 0 25.4123C1.58913 25.873 3.27793 25.8615 4.86067 25.3794C6.44341 24.8972 7.85177 23.9652 8.91421 22.6968C9.62515 21.7288 10.6243 21.0107 11.7685 20.6454C12.9128 20.2802 14.1432 20.2866 15.2835 20.6638C15.4853 20.7249 15.6987 20.7375 15.9063 20.7005C16.1138 20.6634 16.3097 20.5777 16.4778 20.4505C16.6466 20.3233 16.7824 20.1576 16.8739 19.9671C16.9655 19.7766 17.01 19.567 17.0038 19.3558C16.9535 17.4357 17.4406 15.5398 18.4103 13.8819C19.3799 12.2239 20.7935 10.8698 22.4917 9.97239C23.2179 9.5888 24.014 9.35581 24.8325 9.28741C25.6509 9.219 26.4747 9.31659 27.2545 9.57431C27.2545 9.75914 27.1407 9.91553 27.0981 10.0861C26.6337 11.9837 26.8035 13.9811 27.5815 15.773C28.1526 17.1053 29.0449 18.2753 30.1787 19.1784C31.3125 20.0814 32.6525 20.6895 34.0787 20.9481C34.6034 21.05 35.1366 21.1024 35.6711 21.1045C37.4769 21.0856 39.234 20.516 40.7075 19.4719C42.181 18.4277 43.3007 16.9587 43.9171 15.2612C43.9795 15.0783 44.0015 14.8839 43.9816 14.6916C43.9616 14.4993 43.9002 14.3137 43.8016 14.1474C43.7029 13.9812 43.5693 13.8383 43.4101 13.7287C43.2508 13.6191 43.0697 13.5453 42.8792 13.5125C42.5675 13.4699 42.2504 13.5319 41.9777 13.6889C41.705 13.8458 41.492 14.0888 41.3722 14.3797C40.9406 15.5359 40.1607 16.5295 39.1401 17.2232C38.4443 17.7068 37.6558 18.0408 36.8243 18.2042C35.9929 18.3676 35.1366 18.3567 34.3095 18.1723C33.4825 17.988 32.7027 17.634 32.0194 17.133C31.336 16.6319 30.7641 15.9946 30.3396 15.2612C29.5497 13.5498 29.4082 11.6097 29.9415 9.80179L30.1548 9.24732C30.9797 7.11072 32.4863 5.3059 34.4412 4.11263C36.3961 2.91936 38.69 2.40429 40.9674 2.64725C43.2448 2.89021 45.3784 3.87764 47.0375 5.45648C48.6967 7.03531 49.7887 9.11737 50.1442 11.3799C50.2136 11.7032 50.3935 11.9923 50.653 12.1973C50.9125 12.4023 51.2353 12.5104 51.5659 12.5031C53.7152 12.4675 55.8475 12.8891 57.8215 13.74C60.3373 14.872 62.3051 16.9505 63.2979 19.5244C64.2908 22.0982 64.2285 24.9598 63.1246 27.488Z" fill="#17CD7E"/>
<path d="M93.888 9.884C94.016 9.71333 94.4213 9.55333 95.104 9.404C95.808 9.23333 96.4693 9.148 97.088 9.148C97.7067 9.148 98.2187 9.23333 98.624 9.404L95.488 33.5H91.136L92.384 22.684L91.968 22.812C90.0053 23.388 88.224 23.9533 86.624 24.508L86.176 28.028C85.664 31.804 83.8933 33.692 80.864 33.692C79.776 33.692 78.9333 33.372 78.336 32.732C77.7387 32.0707 77.44 31.228 77.44 30.204C77.44 27.9213 79.0507 25.8627 82.272 24.028L83.904 10.14C84.3093 9.86267 84.8427 9.628 85.504 9.436C86.1653 9.244 86.8053 9.148 87.424 9.148C88.0427 9.148 88.448 9.15867 88.64 9.18L86.976 21.916C88.2773 21.4467 89.92 20.9453 91.904 20.412L92.672 20.22L93.888 9.884ZM79.68 29.724C79.68 30.4067 79.9893 30.748 80.608 30.748C80.9493 30.748 81.1733 30.652 81.28 30.46C81.3867 30.2467 81.4613 30.076 81.504 29.948C81.568 29.7987 81.6213 29.6067 81.664 29.372C81.7067 29.1373 81.7387 28.9347 81.76 28.764C81.7813 28.572 81.8027 28.3267 81.824 28.028C81.8453 27.7293 81.8667 27.4947 81.888 27.324L81.952 26.844C80.4373 27.8893 79.68 28.8493 79.68 29.724ZM114.484 33.66C112.521 33.66 111.22 32.9773 110.58 31.612C109.47 32.9987 108.041 33.692 106.292 33.692C104.564 33.692 103.102 33.1053 101.908 31.932C100.734 30.7587 100.148 29.212 100.148 27.292C100.148 24.4973 100.969 22.268 102.612 20.604C104.254 18.94 106.334 18.108 108.852 18.108C108.916 18.108 108.98 18.108 109.044 18.108C110.11 18.108 111.092 18.2893 111.988 18.652C112.564 18.2893 113.257 18.108 114.068 18.108C114.9 18.108 115.497 18.2147 115.86 18.428C115.668 20.0067 115.465 21.564 115.252 23.1C115.038 24.6147 114.889 25.692 114.804 26.332C114.612 27.7827 114.516 28.828 114.516 29.468C114.516 30.3213 114.857 30.748 115.54 30.748C116.073 30.748 116.638 30.396 117.236 29.692C117.833 28.9667 118.356 27.836 118.804 26.3C119.422 26.8547 119.849 27.4733 120.084 28.156C119.465 30.1827 118.633 31.612 117.588 32.444C116.542 33.2547 115.508 33.66 114.484 33.66ZM109.332 20.604C107.966 20.604 106.878 21.1267 106.068 22.172C105.278 23.196 104.809 24.732 104.66 26.78C104.638 26.972 104.628 27.1533 104.628 27.324C104.628 28.3693 104.873 29.2013 105.364 29.82C105.876 30.4387 106.526 30.748 107.316 30.748C108.66 30.748 109.673 29.7987 110.356 27.9L111.124 20.988C110.505 20.732 109.908 20.604 109.332 20.604ZM132.271 21.98C132.271 24.1987 130.948 25.8947 128.303 27.068C128.367 27.452 128.463 27.9107 128.591 28.444C128.975 30.0227 129.615 30.8333 130.511 30.876C130.575 30.876 130.639 30.876 130.703 30.876C132.409 30.876 133.679 29.372 134.511 26.364C134.959 26.7693 135.385 27.3773 135.791 28.188C135.492 29.34 135.065 30.3107 134.511 31.1C133.977 31.8893 133.391 32.4547 132.751 32.796C131.62 33.3933 130.553 33.692 129.551 33.692C127.204 33.692 125.561 32.38 124.623 29.756C124.26 28.7107 124.015 27.644 123.887 26.556C125.103 26.2573 126.063 25.7667 126.767 25.084C127.471 24.38 127.823 23.6333 127.823 22.844C127.823 21.4787 127.14 20.796 125.775 20.796C125.028 20.796 124.388 21.084 123.855 21.66C123.321 22.2147 122.969 22.8867 122.799 23.676C122.671 24.764 122.457 26.4813 122.159 28.828C121.881 31.1533 121.7 32.7107 121.615 33.5H117.359C118.895 20.4227 119.823 12.3907 120.143 9.404C120.591 9.23333 121.199 9.148 121.967 9.148C123.631 9.148 124.463 9.63867 124.463 10.62V10.812C124.036 14.6733 123.641 17.628 123.279 19.676C124.452 18.588 125.924 18.044 127.695 18.044C129.017 18.044 130.105 18.3853 130.959 19.068C131.833 19.7507 132.271 20.7213 132.271 21.98ZM147.922 18.428C147.047 25.34 146.61 29.02 146.61 29.468C146.61 30.3213 146.919 30.748 147.538 30.748C148.092 30.748 148.69 30.3747 149.33 29.628C149.991 28.86 150.514 27.7187 150.898 26.204C151.602 26.972 152.028 27.5693 152.178 27.996C151.687 30.0653 150.908 31.5267 149.842 32.38C148.775 33.2333 147.676 33.66 146.546 33.66C144.69 33.66 143.442 32.9453 142.802 31.516C141.692 32.9453 140.21 33.66 138.354 33.66C136.818 33.66 135.634 33.276 134.802 32.508C133.97 31.74 133.554 30.7373 133.554 29.5C133.554 29.2013 133.607 28.6787 133.714 27.932C134.204 23.964 134.578 20.8067 134.834 18.46C135.495 18.2253 136.103 18.108 136.658 18.108C137.212 18.108 137.628 18.1293 137.906 18.172C138.183 18.2147 138.45 18.3747 138.706 18.652C138.962 18.9293 139.09 19.324 139.09 19.836L138.034 27.996C137.991 28.252 137.97 28.4867 137.97 28.7C137.97 29.9587 138.546 30.588 139.698 30.588C140.764 30.588 141.65 30.0653 142.354 29.02C142.354 28.7853 142.375 28.412 142.418 27.9L143.474 19.388C143.623 19.0253 143.943 18.7267 144.434 18.492C144.924 18.236 145.532 18.108 146.258 18.108C147.004 18.108 147.559 18.2147 147.922 18.428ZM158.989 29.916L159.757 22.78C159.757 22.204 159.607 21.724 159.309 21.34C159.01 20.956 158.509 20.764 157.805 20.764C157.122 20.764 156.535 21.0733 156.045 21.692C155.575 22.2893 155.277 23.0467 155.149 23.964C154.381 29.8093 153.975 32.988 153.933 33.5H149.613L151.373 18.428C152.269 18.1933 152.951 18.076 153.421 18.076C154.85 18.076 155.597 18.5987 155.661 19.644C156.706 18.62 157.954 18.108 159.405 18.108C160.877 18.108 162.029 18.4707 162.861 19.196C163.693 19.9213 164.109 20.8387 164.109 21.948C164.109 22.2467 164.045 22.812 163.917 23.644C163.426 26.8867 163.181 28.7747 163.181 29.308C163.181 30.2893 163.511 30.78 164.173 30.78C165.623 30.78 166.722 29.2653 167.469 26.236C168.194 27.004 168.631 27.612 168.781 28.06C167.65 31.8147 165.687 33.692 162.893 33.692C161.57 33.692 160.589 33.2867 159.949 32.476C159.309 31.6653 158.989 30.812 158.989 29.916ZM180.702 33.66C178.74 33.66 177.438 32.9773 176.798 31.612C175.689 32.9987 174.26 33.692 172.51 33.692C170.782 33.692 169.321 33.1053 168.126 31.932C166.953 30.7587 166.366 29.212 166.366 27.292C166.366 24.4973 167.188 22.268 168.83 20.604C170.473 18.94 172.553 18.108 175.07 18.108C175.134 18.108 175.198 18.108 175.262 18.108C176.329 18.108 177.31 18.2893 178.206 18.652C178.782 18.2893 179.476 18.108 180.286 18.108C181.118 18.108 181.716 18.2147 182.078 18.428C181.886 20.0067 181.684 21.564 181.47 23.1C181.257 24.6147 181.108 25.692 181.022 26.332C180.83 27.7827 180.734 28.828 180.734 29.468C180.734 30.3213 181.076 30.748 181.758 30.748C182.292 30.748 182.857 30.396 183.454 29.692C184.052 28.9667 184.574 27.836 185.022 26.3C185.641 26.8547 186.068 27.4733 186.302 28.156C185.684 30.1827 184.852 31.612 183.806 32.444C182.761 33.2547 181.726 33.66 180.702 33.66ZM175.55 20.604C174.185 20.604 173.097 21.1267 172.286 22.172C171.497 23.196 171.028 24.732 170.878 26.78C170.857 26.972 170.846 27.1533 170.846 27.324C170.846 28.3693 171.092 29.2013 171.582 29.82C172.094 30.4387 172.745 30.748 173.534 30.748C174.878 30.748 175.892 29.7987 176.574 27.9L177.342 20.988C176.724 20.732 176.126 20.604 175.55 20.604Z" fill="white"/>
</svg>